<?xml version="1.0" encoding="UTF-8" standalone="no"?>
<!-- Created with Inkscape (http://www.inkscape.org/) -->

<svg
   width="57.40604mm"
   height="45.129803mm"
   version="1.1"
   viewBox="0 0 57.40604 45.129803"
   id="svg126"
   sodipodi:docname="Plantwallk (1).svg"
   inkscape:version="1.4.2 (f4327f4, 2025-05-13)"
   xmlns:inkscape="http://www.inkscape.org/namespaces/inkscape"
   xmlns:sodipodi="http://sodipodi.sourceforge.net/DTD/sodipodi-0.dtd"
   xmlns="http://www.w3.org/2000/svg"
   xmlns:svg="http://www.w3.org/2000/svg">
  <defs
     id="defs126" />
  <sodipodi:namedview
     id="namedview126"
     pagecolor="#ffffff"
     bordercolor="#000000"
     borderopacity="0.25"
     inkscape:showpageshadow="2"
     inkscape:pageopacity="0.0"
     inkscape:pagecheckerboard="0"
     inkscape:deskcolor="#d1d1d1"
     inkscape:document-units="mm"
     inkscape:zoom="1.6275884"
     inkscape:cx="396.90625"
     inkscape:cy="561.25984"
     inkscape:window-width="3840"
     inkscape:window-height="2066"
     inkscape:window-x="-11"
     inkscape:window-y="-11"
     inkscape:window-maximized="1"
     inkscape:current-layer="svg126">
    <inkscape:page
       x="-7.464389e-38"
       y="0"
       width="57.40604"
       height="45.129803"
       id="page2"
       margin="0"
       bleed="0" />
  </sodipodi:namedview>
  <g
     stroke-miterlimit="2.7"
     stroke-width="0"
     id="g10"
     transform="translate(-108.43959,-40.988831)">
    <text
       transform="rotate(-0.19346)"
       x="12.400454"
       y="88.254677"
       fill="#deaa87"
       font-family="'Century Gothic'"
       font-size="10.361px"
       font-weight="bold"
       stroke="#000000"
       stroke-dashoffset="0.1952"
       stroke-linecap="square"
       style="font-variant-ligatures:normal;font-variant-caps:normal;font-variant-numeric:normal;font-variant-east-asian:normal;white-space:pre;paint-order:fill markers stroke"
       xml:space="preserve"
       id="text9"><tspan
         x="12.400454"
         y="88.254677"
         font-family="'Century Gothic'"
         font-weight="bold"
         stroke-width="0"
         style="font-variant-ligatures:normal;font-variant-caps:normal;font-variant-numeric:normal;font-variant-east-asian:normal"
         id="tspan9"><tspan
           fill="#a7ac93"
           font-size="10.361px"
           style="font-variant-ligatures:normal;font-variant-caps:normal;font-variant-numeric:normal;font-variant-east-asian:normal"
           id="tspan5">P</tspan><tspan
           fill="#668000"
           font-size="12.38px"
           style="font-variant-ligatures:normal;font-variant-caps:normal;font-variant-numeric:normal;font-variant-east-asian:normal"
           id="tspan6">l</tspan><tspan
           fill="#a7ac93"
           font-size="10.361px"
           style="font-variant-ligatures:normal;font-variant-caps:normal;font-variant-numeric:normal;font-variant-east-asian:normal"
           id="tspan8">antWall<tspan
   fill="#668000"
   font-family="'Century Gothic'"
   font-size="10.361px"
   font-weight="bold"
   stroke-width="0"
   style="font-variant-ligatures:normal;font-variant-caps:normal;font-variant-numeric:normal;font-variant-east-asian:normal"
   id="tspan7">K</tspan></tspan></tspan></text>
    <path
       d="m 24.237,62.417 c 0.69435,-1.8887 1.6344,-4.0358 2.8303,-5.5141 1.1958,-1.4783 2.4286,-2.6104 3.9206,-3.6135 1.6006,-1.1372 3.3198,-2.1158 5.0652,-3.0209 0,0 2.206,-0.98391 1.175,-0.36079 -1.031,0.62313 -4.1318,2.4943 -6.0541,3.9399 -1.4525,1.1033 -2.6766,2.4678 -3.6523,3.9856 -0.70609,0.96569 -1.2826,2.0191 -1.6418,3.1533 -0.34758,0.87671 -0.63766,1.5393 -0.82233,2.4648 -0.04837,0.42539 -0.18407,0.11532 -0.35237,-0.03402 -0.29991,-0.26616 -0.33102,-0.67807 -0.46824,-1.0003 z"
       fill="#eef4d7"
       style="paint-order:fill markers stroke"
       id="path9" />
    <path
       d="m 20.541,64.739 c 0.88555,2.3161 1.0827,2.8956 1.3983,4.4677 0.31556,1.5721 0.34796,3.4565 -0.33701,4.9781 -0.68496,1.5215 -1.2788,0.83713 -1.6915,1.9248 0.68513,-0.37914 1.3739,0.55663 1.7427,0.86281 1.4297,-3.5057 1.4068,-3.9219 1.2799,-5.6149 -0.12684,-1.693 -0.36004,-2.4561 -0.60328,-3.377 -0.24324,-0.92091 -1.9004,-5.0927 -3.1573,-6.9052 -3.0373,-4.3797 -2.49,-3.91 -2.3578,-3.3499 0.1322,0.56008 2.7075,4.4843 3.7261,7.0136 z"
       fill="#668000"
       style="paint-order:fill markers stroke"
       id="path10" />
    <text
       transform="matrix(0.21546,0,0,0.21546,12.954804,93.84266)"
       fill="#677821"
       font-family="'Century Gothic'"
       font-size="26.667px"
       font-weight="bold"
       stroke="#324278"
       stroke-dashoffset="0.1952"
       stroke-linecap="square"
       style="white-space:pre;shape-inside:url(#rect1-9);paint-order:fill markers stroke"
       xml:space="preserve"
       id="text10"
       inkscape:export-filename="text10.svg"
       inkscape:export-xdpi="96"
       inkscape:export-ydpi="96"><tspan
         x="0"
         y="0"
         id="tspan2">COST Action 24116 </tspan></text>
    <rect
       x="76.612"
       y="109.22"
       width="58.094002"
       height="48.062"
       ry="2.9734001"
       fill="#214478"
       style="paint-order:fill markers stroke"
       id="rect10" />
  </g>
  <g
     fill="#87aade"
     fill-rule="evenodd"
     stroke="#042433"
     stroke-miterlimit="8"
     stroke-width="0"
     id="g104"
     transform="translate(-81.454363,-47.816418)">
    <path
       d="m 101.8,69.18 c 2.0024,-1.8205 4.0314,-4.0635 6.5818,-4.1214 2.5503,-0.0579 10.675,-0.1929 11.222,-0.18337 0.54689,0.0098 2.101,1.3008 2.1191,2.5342 0.0323,5.9589 0.38766,9.0291 -0.5687,9.9605 -0.95635,0.9314 -9.102,0.53011 -11.318,0.5641 -2.2158,0.03403 -8.3939,0.80585 -10.671,0.2955 -2.1088,-0.47264 -2.395,-1.3521 -1.3575,-3.8812 1.0375,-2.5292 1.9901,-3.3478 3.9925,-5.1682 z"
       id="path102" />
    <path
       d="m 113.15,48.883 c 2.857,-1.8949 17.522,-0.55049 19.444,-0.78221 1.922,-0.23173 1.165,7.1356 1.2498,9.5477 0.0847,2.4122 0.26031,4.2852 -4.1923,4.0707 -4.1385,-0.19932 -13.417,0.26982 -20.596,0.48168 -3.2506,0.09593 -0.84966,-4.5143 0.18711,-6.6933 0.71959,-1.5123 1.0508,-4.7298 3.9078,-6.6246 z"
       id="path103" />
    <path
       d="m 124.89,65.593 c 0.76957,-0.67429 2.4092,-0.79496 3.9838,-0.91523 1.5746,-0.12026 4.4597,-0.49278 4.7223,2.2431 0.34305,3.5731 -0.085,3.4216 -0.0262,7.9444 0.0474,3.6571 -1.6171,3.08 -3.6949,3.2128 -2.0778,0.13274 -3.9095,0.45212 -4.655,-0.24279 -0.74547,-0.69491 -0.56608,-0.92368 -0.59445,-2.065 0,0 -0.29395,-4.8601 -0.16916,-5.5311 0.12478,-0.67101 -0.3359,-3.9719 0.43368,-4.6462 z"
       id="path104" />
  </g>
  <path
     d="m 6.3706361,28.928583 c -3.2269,-1.2685 -1.4337,-4.6549 -0.83214,-13.542 0.4551,-6.7235 4.1287,-10.779 7.6049999,-12.206 4.1355,-1.6971 5.524,-2.47769999 11.413,-3.05509999 5.889,-0.57742 4.5556,1.00069999 4.1023,1.43549999 -1.9492,1.8696 -3.5055,4.7604 -4.4722,7.4652 -1.7183,4.8074 -0.80749,3.5194 -2.6089,7.8271 -1.80141,4.3077 -5.465,4.3049 -6.469,4.9946 -1.9323,1.3272 -3.0471,1.5903 -4.7571,4.4587 -2.9890999,5.0141 -1.9287999,2.1145 -3.9808999,2.6223 z"
     fill="#214478"
     fill-rule="evenodd"
     stroke="#042433"
     stroke-miterlimit="8"
     stroke-width="0"
     id="path105" />
  <path
     d="m 0.59063609,5.464583 c 0.27633,1.2934 0.49648001,2.5965 0.49085001,3.9228 0.0573,1.8323 0.29826,3.6656 0.0804,5.4952 -0.0663,1.6143 -0.0763,3.239 -0.47445001,4.8167 -0.28658,2.218 -0.71742,4.4591 -0.48126,6.7003 0.17737,1.6011 1.05310001,3.3171 2.65150001,3.9179 0.99024,0.23374 1.9747,0.14433 2.9608,-0.41313 0.98603,-0.55745 2.8459,-0.15574 3.8127,0.19857 2.0388999,0.7472 9.4494999,-3.5452 2.7365999,-12.583 -0.7591,-1.036 -1.433,-2.0567 -2.227,-3.1361 -0.7940199,-1.0794 -1.8900999,-2.0629 -2.8364999,-3.0915 -1.9632,-1.9685 -4.2892,-3.5822 -5.9859,-5.8034 -0.24694,-0.32776 -0.91770001,-0.96634 -0.72766001,-0.02434 z"
     fill="#5f8dd3"
     fill-rule="evenodd"
     stroke-miterlimit="8"
     stroke-width="0"
     id="path106" />
  <g
     stroke-miterlimit="2.7"
     stroke-width="0"
     id="g111"
     transform="translate(-81.454363,-47.816418)">
    <text
       transform="rotate(-0.19346)"
       x="80.796822"
       y="88.133171"
       fill="#214478"
       font-family="'Century Gothic'"
       font-size="10.361px"
       font-weight="bold"
       stroke="#000000"
       stroke-dashoffset="0.1952"
       stroke-linecap="square"
       style="font-variant-ligatures:normal;font-variant-caps:normal;font-variant-numeric:normal;font-variant-east-asian:normal;white-space:pre;paint-order:fill markers stroke"
       xml:space="preserve"
       id="text110"><tspan
         x="80.796822"
         y="88.133171"
         fill="#214478"
         font-family="'Century Gothic'"
         font-weight="bold"
         stroke-width="0"
         style="font-variant-ligatures:normal;font-variant-caps:normal;font-variant-numeric:normal;font-variant-east-asian:normal"
         id="tspan110"><tspan
           font-size="10.361px"
           style="font-variant-ligatures:normal;font-variant-caps:normal;font-variant-numeric:normal;font-variant-east-asian:normal"
           id="tspan106">P</tspan><tspan
           font-size="12.38px"
           style="font-variant-ligatures:normal;font-variant-caps:normal;font-variant-numeric:normal;font-variant-east-asian:normal"
           id="tspan107">l</tspan><tspan
           font-size="10.361px"
           style="font-variant-ligatures:normal;font-variant-caps:normal;font-variant-numeric:normal;font-variant-east-asian:normal"
           id="tspan109">antWall<tspan
   fill="#214478"
   font-family="'Century Gothic'"
   font-size="10.361px"
   font-weight="bold"
   stroke-width="0"
   style="font-variant-ligatures:normal;font-variant-caps:normal;font-variant-numeric:normal;font-variant-east-asian:normal"
   id="tspan108">K</tspan></tspan></tspan></text>
    <path
       d="m 92.632,62.065 c 0.69435,-1.8887 1.6344,-4.0358 2.8303,-5.5141 1.1958,-1.4783 2.4286,-2.6104 3.9206,-3.6135 1.6006,-1.1372 3.3198,-2.1158 5.0652,-3.0209 0,0 2.206,-0.98391 1.175,-0.36079 -1.031,0.62313 -4.1318,2.4943 -6.0541,3.9399 -1.4525,1.1033 -2.6766,2.4678 -3.6523,3.9856 -0.70608,0.96569 -1.2826,2.0191 -1.6418,3.1533 -0.34758,0.87671 -0.63766,1.5393 -0.82233,2.4648 -0.04837,0.42539 -0.18407,0.11532 -0.35237,-0.03402 -0.29991,-0.26616 -0.33102,-0.67806 -0.46824,-1.0003 z"
       fill="#afc6e9"
       style="paint-order:fill markers stroke"
       id="path110" />
    <path
       d="m 88.937,64.386 c 0.88555,2.3161 1.0827,2.8956 1.3983,4.4677 0.31556,1.5721 0.34796,3.4565 -0.33701,4.9781 -0.68496,1.5215 -1.2788,0.83713 -1.6915,1.9248 0.68513,-0.37914 1.3739,0.55663 1.7427,0.86281 1.4297,-3.5057 1.4068,-3.9219 1.2799,-5.6149 -0.12684,-1.693 -0.36004,-2.4561 -0.60328,-3.377 -0.24324,-0.92091 -1.9004,-5.0927 -3.1573,-6.9052 -3.0373,-4.3797 -2.49,-3.91 -2.3578,-3.3499 0.1322,0.56008 2.7075,4.4843 3.7261,7.0136 z"
       fill="#214478"
       style="paint-order:fill markers stroke"
       id="path111" />
    <text
       transform="matrix(0.21546,0,0,0.21546,81.187842,92.842414)"
       fill="#939dac"
       font-family="'Century Gothic'"
       font-size="26.667px"
       font-weight="bold"
       stroke="#324278"
       stroke-dashoffset="0.1952"
       stroke-linecap="square"
       style="white-space:pre;shape-inside:url(#rect1-9-1);paint-order:fill markers stroke"
       xml:space="preserve"
       id="text111"><tspan
         x="0"
         y="0"
         id="tspan3">COST Action 24116 </tspan></text>
  </g>
  <path
     d="m 57.405636,19.383583 c -0.0468,0.02121 -0.0924,0.04471 -0.13917,0.06584 0.053,0.01419 0.0871,0.02495 0.13957,0.0386 -1.3e-4,-0.03441 -2.9e-4,-0.06942 -4e-4,-0.10447 z"
     stroke-width="0.76288"
     id="path112" />
  <path
     d="m 55.905636,19.032583 c -0.008,-0.01869 -0.009,0.0534 0.01,0.05951 0.005,0.0015 0.01,0.0023 0.0142,0.0038 -0.008,-0.02098 -0.0158,-0.04219 -0.024,-0.06309 z"
     stroke-width="0.76288"
     id="path113" />
</svg>
